<?xml version="1.0" standalone="no"?><!DOCTYPE svg PUBLIC "-//W3C//DTD SVG 1.1//EN" "http://www.w3.org/Graphics/SVG/1.1/DTD/svg11.dtd"><svg class="icon" width="200px" height="200.00px" viewBox="0 0 1024 1024" version="1.1" xmlns="http://www.w3.org/2000/svg"><path d="M579.1 91.1C401.7 55 228.5 169.6 192.4 347 157.2 520.3 265.6 689.4 436 730.9c-8.1 6.8-34.1 25.6-69.9 21.1-24.8-3.1-26.4 22 2.8 32.1 22.7 7.8 52.9 4.5 70.2 1.5-3.1 52.9 21.3 85 21.3 85-10.1 5.7-23.5 16.1-30 32.8-16 41.3 23.4 39.5 45.8 18.9 28.3-26 34.6-20.3 34.6-20.3 42 35.2 116.5 32.7 117.8 0.1 0.2-5.4-2-7.9-5.7-9.3-6.8-3.7-20.7-1.9-29-7.9 48.4-18.7 8.9-72 8.9-72 11.2 6 25.6 11.6 42.6 13.9 43.1 5.9 60.9-22.3 23.1-33-31.1-8.8-66.4-39-77.3-50.1-2.2-2.2-6-6.3-9.7-10.5 124-26.2 226.9-123.4 253.8-255.6 35.8-177.3-78.7-350.4-256.2-386.5z" fill="#A0EAF7" /><path d="M378.8 786.7c27.5 7 61.5-7.3 61.5 2 0 18.2 0 51 21.2 82 0 0-56.1 29.6-25.2 66.6 0 0 0.2-31.7 31.8-50 26.1-15.1-2.6-35-8.1-68.6-6-36.8 2-80.8 2-80.8s-12.4-0.8-23.7-6.2c0 0-36.2 27.1-60.5 20.5-29.9-8.2-53.2 20.7 1 34.5zM224.4 367.4c39.1-176.8 214.2-288.4 391-249.3 46.3 10.2 88.1 29.8 124 56.3-43.1-40.9-97.7-70.6-160.2-83.3C401.7 55 228.5 169.6 192.4 347c-26.2 129 27.1 255.6 126.4 329.1-80.6-76.6-120.2-192.3-94.4-308.7z" fill="#C2F9FF" /><path d="M719.1 156.7c59.1 73.4 86.2 171.5 66 271.1-36.1 177.5-209.2 292-386.7 255.9-53.1-10.8-100.5-33.8-140-65.6 46.2 57.5 112 99.7 190 115.6 43.1 8.8 85.9 8.6 126.5 0.9-5.9 2.6-12.4 6.5-12.4 6.5s74.9 55.1 13.5 50.4c-1.5-0.1-1.8 0.4-1.2 1.5l-3.3 2.5s23.9 33.2 16.9 53.5c-4.4 12.8-20.2 13.8-37.8 16.4-29.6 4.4-47.1 9.3-74.5 36.7-12.6 12.6-20.6 27.1-38.2 28.8-9.3 0.9 4.5 8 21.5 1.4s35.8-34 62.7-36.8c0.2 0 0.5 0 0.7-0.1-5 1.9-8.1 4.1-8.4 6.6 0 0 43.8 24.1 72.8 20.3s48.2-8.2 44.4-24.1c-3.8-15.9-15.3-8.2-40.5-13.7 0 0-1.3 0.1-3.6 0.3 13.1-4 23.7-9.5 27.7-17.2 10.4-20.3-9.9-53.7-9.9-53.7l-3.8-2.7c13.6 7.1 30.2 13.6 44.5 14.9 34.5 3.2 42.3-7.8 42.4-12.7 0.1-10-11.7-15.5-31.5-24.4-39.1-17.7-68.1-52.7-72.5-56.5 122.6-27 224-123.7 250.6-254.8 25.4-124.3-23.4-246.6-115.9-321z" fill="#48B9F7" /><path d="M392.1 877.6c-4 2.9-7.5 7-10.7 12.6-2.4 4.1-3.9 8.6-4.5 13.4-0.4 2.7 1.6 5.2 4.3 5.6h0.6c2.5 0 4.6-1.8 5-4.4 0.4-3.5 1.5-6.7 3.3-9.7 2.4-4.3 5.1-7.4 7.8-9.4 2.2-1.6 2.8-4.7 1.1-7-1.5-2.2-4.7-2.7-6.9-1.1zM383.3 861.8c-1.5-2.3-4.5-3.1-6.9-1.6-6 3.7-13.5 11.7-17.2 18.3-3.4 6.1-6.5 17.1-5.4 25.3 0.3 2.5 2.5 4.4 5 4.4h0.6c2.7-0.4 4.7-2.9 4.3-5.6-0.7-5.7 1.6-14.5 4.2-19.2 2.9-5.2 9.1-11.9 13.7-14.7 2.4-1.4 3.2-4.5 1.7-6.9zM718.3 777.1c-2.1-1.8-5.3-1.5-7 0.5-1.8 2.1-1.5 5.3 0.5 7 2.6 2.3 4.8 5 6.4 8 2.2 4.4 3.5 8.3 3.6 11.7 0.1 2.7 2.3 4.8 5 4.8h0.2c2.8-0.1 4.9-2.5 4.8-5.2-0.2-4.9-1.7-10.1-4.7-15.8-2.2-4.2-5.2-7.9-8.8-11zM730.7 757.6c-2.5-1.2-5.5-0.2-6.7 2.3s-0.2 5.5 2.3 6.7c5.1 2.5 11.3 9.3 13.8 14.1 2.7 5.2 4.9 14.2 4.8 19.5-0.1 2.8 2.1 5.1 4.9 5.1h0.1c2.7 0 4.9-2.2 5-4.9 0.2-7-2.4-17.7-6-24.4-3.2-6.2-10.8-14.8-18.2-18.4z"  /><path d="M844.5 442.6s-0.1-0.1 0 0L213.2 273.7c-29.1-7.8-59 9.5-66.8 38.6s9.5 59 38.5 66.8L816.2 548h0.1c29.1 7.8 59-9.5 66.8-38.6 7.8-29.1-9.5-59-38.6-66.8z" fill="#FFD727" /><path d="M153 334.8c7.8-29.1 37.7-46.4 66.8-38.6L851 465h0.1c15 4 26.8 13.9 33.7 26.5-1.6-22.6-17.2-42.8-40.3-49h-0.1L213.2 273.7c-29.1-7.8-59 9.5-66.8 38.6-3.8 14.2-1.6 28.5 4.9 40.4-0.4-5.9 0.1-11.9 1.7-17.9z" fill="#FFEC42" /><path d="M869.2 456.9c1.3 7.6 1.1 15.6-1 23.6-7.8 29.1-37.7 46.4-66.8 38.6h-0.1L169.9 350.2c-9.7-2.6-18-7.7-24.6-14.3 3.6 20.2 18.4 37.6 39.6 43.3L816.2 548h0.1c29.1 7.8 59-9.5 66.8-38.6 5.2-19.4-0.8-39.2-13.9-52.5z" fill="#FFB835" /><path d="M845.8 437.7c-0.1 0-0.1 0 0 0 5.7-73.6-13.1-146.6-54.5-209.1-49.1-74.1-124.1-124.7-211.2-142.5-87.1-17.7-175.9-0.4-250.1 48.7-51.1 33.8-91 79.9-116.6 133.8-31.3-7.8-63.4 11.1-71.8 42.4-8.3 31.2 9.8 63.3 40.5 72.5-6.7 74.8 12 149.1 54.1 212.6 44.7 67.6 111 115.6 188.4 137-11.6 7.5-32.1 17.2-57.9 13.9-15.2-1.9-22.5 5.4-24.1 12.3-2.2 9.4 4.6 22.6 24.6 29.4 21.4 7.4 48.9 5.3 66.6 2.7-0.8 39.8 13.1 67.2 19.5 77.5-10 6.5-21.6 17-27.6 32.6-8.9 22.9-1.1 32.5 4.3 36.2 3.7 2.5 8.4 3.7 13.7 3.7 11.4 0 25.2-5.6 35.9-15.4 20-18.4 27.7-19.5 29-19.5 34.1 18.5 87.6 28.7 113.1 14.5 8.4-4.7 13.1-11.8 13.6-20.7 0.7-13.3-11.6-14.5-20.6-15.3-2.6-0.3-5.4-0.5-8.1-1 7.6-5.1 12.6-11.7 14.9-19.7 4.1-14-1-29.4-6.3-40.2 9.6 3.7 19.5 6.3 29.5 7.7 28.7 3.9 46.3-5.7 48.9-17.3 0.2-0.7 0.3-1.8 0.3-3 0-5.6-3.2-15.7-24-22.4-21.5-6.9-50.9-27.4-77.2-53.1 36.8-9 72.2-24.4 104.8-46 52.1-34.5 92.5-81.7 118.1-137 4.9 1.3 9.9 1.9 14.9 1.9 10.3 0 20.5-2.7 29.7-8 13.8-8 23.6-20.8 27.8-36.2 1.4-5.1 2-10.3 2-15.4 0-26.3-17.6-50.4-44.2-57.6zM335.5 143.1c53.5-35.4 114.8-53.7 177.6-53.7 21.6 0 43.4 2.2 65 6.6 84.5 17.2 157.3 66.3 204.9 138.2 39.8 60.1 58 130.2 52.9 200.9L223.2 271.2c24.9-51.5 63.3-95.6 112.3-128.1zM613.6 895c11.2 1.1 11.7 2 11.5 4.8-0.3 5.4-3.1 9.4-8.5 12.4-18.3 10.2-61.8 5.1-95.4-10.5 13.8-3.9 30.3-6.6 51.5-8.5 5.1-0.4 13.1-1.6 19.9-3.2 6.9 3.7 14.7 4.4 21 5z m53.3-96.4c12.9 4.1 17.8 9.9 16.9 13.7-1.4 6-15.3 12.7-37.8 9.6-14.1-1.9-27.9-6.4-40.9-13.4h-0.1c-8-4.3-14.3-8.8-18.7-12.2-4.3-3.4-6.6-5.8-6.7-5.8-1.9-2-5.1-2-7.1-0.1s-2 5.1-0.1 7.1c0.4 0.5 10 10.2 26.9 19.4 3.2 4.7 17.6 27.1 12.5 44.8-2.2 7.7-7.8 13.4-17.1 17.6-5.3 1.8-15.3 3.5-22.8 4.2-30.2 2.7-51.4 7-68.7 14.1-0.1 0.1-0.3 0.1-0.4 0.2h-0.1c-0.1 0-0.2 0.1-0.3 0.1-7.4 2.7-17.4 9.7-29.6 20.9-12 11.1-29.4 16.1-37.1 10.8-6.9-4.7-3.3-17.2-0.6-24.3 5.9-15.3 18.4-24.9 27.8-30.3 1.3-0.7 2.1-1.9 2.4-3.3 0.3-1.4 0-2.9-0.9-4-0.2-0.3-23.2-31.5-20.3-81.7 0-0.4 0-0.8-0.1-1.2 0-4.7 0.2-8.5 0.3-11.1 0.2-2.7 0.3-4.2 0.3-4.2 0.3-2.8-1.7-5.2-4.4-5.5-2.8-0.3-5.2 1.7-5.5 4.4 0 0.2-0.5 5.1-0.7 13-16.6 2.6-43.4 4.9-63.5-2-15-5.2-19-13.6-18.1-17.7 0.9-3.7 6-5.5 13.1-4.7 4 0.5 7.9 0.7 11.7 0.7 29.4 0 50.9-14.1 60.1-21.4 3.4 0.8 6.7 1.5 10.1 2.2 22.3 4.5 44.8 6.8 67 6.8 22.5 0 44.9-2.3 66.8-6.8 25.4 25.5 58.5 51.4 85.7 60.1z m25.1-117c-33.3 22.1-69.7 37.5-107.5 46-3.8 0.9-7.6 1.7-11.5 2.4-19.3 3.6-38.8 5.4-58.6 5.4-21.6 0-43.4-2.2-65-6.6-1.9-0.4-3.8-0.8-5.6-1.2-3.3-0.7-6.6-1.5-9.8-2.3-77.9-19.8-144.8-67.2-189.4-134.7-40.4-61.1-58.6-132.5-52.6-204.4l613.9 164.2c-25 52.9-64 98.1-113.9 131.2z m186.3-173.5c-3.4 12.8-11.6 23.5-23.1 30.1-10.8 6.2-23.3 8.2-35.4 5.5-0.7-0.1-1.4-0.3-2.1-0.5h-0.1c-0.1 0-0.1 0-0.2-0.1l-7.3-2-617.1-165-6.7-1.8c-1-0.3-2.1-0.6-3.1-0.9-24.5-8.3-38.7-34.4-31.9-59.8 6.8-25.5 32.4-41 57.9-35.7 0.9 0.2 1.9 0.4 2.8 0.6l7 1.9 616 164.8 8 2.1H843.3c0.5 0.1 1 0.3 1.5 0.4 25.4 7.8 40.4 34.5 33.5 60.4z"  /><path d="M381.513036 386.612653a12.8 12.8 0 1 0 18.19898-18.004363 12.8 12.8 0 1 0-18.19898 18.004363Z"  /><path d="M629.845362 453.241294a12.8 12.8 0 1 0 18.198981-18.004364 12.8 12.8 0 1 0-18.198981 18.004364Z"  /><path d="M286.891969 457.602587a22.9 14.1 14.94 1 0 7.270169-27.246737 22.9 14.1 14.94 1 0-7.270169 27.246737Z" fill="#FF404E" /><path d="M683.358216 562.598296a22.9 14.1 14.46 1 0 7.041654-27.306686 22.9 14.1 14.46 1 0-7.041654 27.306686Z" fill="#FF404E" /><path d="M453.5 164.5c-3.4 0-6.5-2.3-7.3-5.8-1-4 1.5-8.1 5.6-9 4.8-1.1 9.7-2.2 14.6-3 4.1-0.7 8 2 8.7 6.1 0.7 4.1-2 8-6.1 8.7-4.6 0.8-9.3 1.8-13.8 2.9-0.5 0-1.1 0.1-1.7 0.1zM338.6 224.6c-2.1 0-4.1-0.8-5.6-2.5-2.8-3.1-2.5-7.8 0.6-10.6 25.7-23 55.2-40.7 87.6-52.6 3.9-1.4 8.2 0.6 9.6 4.5 1.4 3.9-0.6 8.2-4.5 9.6-30.6 11.2-58.4 27.9-82.7 49.7-1.4 1.3-3.2 1.9-5 1.9z" fill="#FFFFFF" /></svg>